<svg xmlns="http://www.w3.org/2000/svg" viewBox="0 0 195.9 54.8"><g fill="#114460"><path d="M58.5 26.7c.6-.2 1.2-.6 1.6-1 .6-.7.9-1.5.9-2.5 0-1.5-.5-2.5-1.6-3.2-1-.7-2.7-1-5-1h-5v16.4h6.1c1.9 0 3.4-.4 4.4-1.3 1.1-.8 1.6-2 1.6-3.5.1-2.1-1-3.4-3-3.9zm-.9-1.6c-.5.4-1.5.6-2.8.6h-2.9v-4.6h2.5c1.4 0 2.4.2 3 .5.6.3.9.9.9 1.7.1.9-.2 1.5-.7 1.8zm-5.7 2.7h3c1.3 0 2.4.2 3 .6.6.4.9 1 .9 1.9 0 1-.3 1.6-.9 2.1-.6.5-1.6.7-2.9.7h-3.2v-5.3zM64 22.8h2.5v12.5H64zM64.3 18.8c-.3.2-.4.6-.4 1.1 0 .5.1.9.4 1.1.3.3.6.4 1 .4s.7-.1 1-.4c.3-.3.4-.6.4-1.1 0-.5-.1-.9-.4-1.1-.6-.5-1.5-.5-2 0zM74.1 22.6c-1.6 0-2.8.4-3.7 1.1-.9.8-1.3 1.8-1.3 3.2 0 .8.2 1.6.7 2.2.3.5.7.9 1.2 1.2-.3.2-.6.5-.8.7-.3.4-.4.8-.4 1.3 0 .4.1.8.4 1.2l.3.3c-.6.2-1.2.5-1.5 1-.5.6-.8 1.3-.8 2.1 0 1.2.5 2.1 1.5 2.7.9.6 2.3.9 3.9.9 2.2 0 3.9-.4 5-1.1 1.2-.7 1.8-1.8 1.8-3.3 0-1.1-.4-2-1.2-2.6-.8-.6-1.9-.9-3.3-.9h-2.2c-.8 0-1.1-.1-1.3-.2-.2-.1-.3-.2-.3-.5 0-.5.3-.9 1-1.2.3 0 .7.1 1 .1 1.5 0 2.7-.4 3.6-1.1.9-.7 1.4-1.8 1.4-3 0-.5-.1-1.1-.3-1.5l-.3-.6 2.1-.2v-1.7H76c-.6 0-1.2-.1-1.9-.1zM76.9 38c-.7.4-1.8.6-3.4.6-1 0-1.8-.2-2.3-.5-.5-.3-.7-.7-.7-1.2 0-.6.2-1.1.6-1.4.4-.3 1-.5 1.8-.5h2.3c1.4 0 1.9.2 2.2.3.3.2.5.5.5 1.1 0 .7-.3 1.2-1 1.6zm-2.8-8.8c-.8 0-1.4-.2-1.9-.6-.4-.4-.6-.9-.6-1.7 0-.8.2-1.4.6-1.8.4-.4 1-.6 1.8-.6 1.7 0 2.5.8 2.5 2.4 0 1.6-.8 2.3-2.4 2.3zM87.6 24.8c.4 0 .8 0 1.2.1.5.1.9.2 1.3.4l.3.1.8-2.1H91c-.4-.2-.9-.3-1.5-.5-.6-.1-1.2-.2-1.9-.2-1.9 0-3.5.6-4.5 1.7-1.1 1.1-1.6 2.8-1.6 4.8s.5 3.6 1.6 4.7c1 1.1 2.5 1.7 4.4 1.7 1.3 0 2.4-.2 3.3-.6l.2-.1v-2.2l-.4.2c-1.1.4-2.1.6-3.1.6-1.1 0-2-.3-2.5-1.1-.6-.7-.9-1.8-.9-3.2 0-2.9 1.1-4.3 3.5-4.3zM98.5 22.6c-1.9 0-3.4.6-4.5 1.7S92.4 27 92.4 29c0 1.3.2 2.4.7 3.4.5 1 1.2 1.7 2.1 2.3.9.5 2 .8 3.1.8 1.9 0 3.4-.6 4.5-1.7s1.6-2.7 1.6-4.7-.5-3.5-1.6-4.7c-1-1.2-2.5-1.8-4.3-1.8zm-.1 10.8c-1.2 0-2-.4-2.6-1.1-.6-.7-.9-1.8-.9-3.3 0-1.5.3-2.5.9-3.3.6-.7 1.4-1 2.6-1 1.2 0 2 .3 2.6 1.1.6.7.9 1.8.9 3.2 0 1.4-.3 2.5-.9 3.3-.6.8-1.4 1.1-2.6 1.1zM120.8 22.6c-.9 0-1.8.2-2.6.6-.6.3-1.1.7-1.5 1.2-.7-1.2-2-1.8-3.9-1.8-.8 0-1.6.2-2.3.5-.5.3-.9.6-1.3 1l-.2-1.3h-2v12.5h2.5v-6.5c0-1.5.3-2.5.8-3.1.5-.6 1.3-.9 2.4-.9.8 0 1.4.2 1.8.6.4.4.6 1.1.6 1.9v8h2.5v-6.9c0-1.3.3-2.2.8-2.8.5-.6 1.3-.9 2.4-.9.8 0 1.4.2 1.8.6.4.4.6 1.1.6 1.9v8h2.5v-8c0-1.6-.4-2.8-1.1-3.5-1.1-.7-2.3-1.1-3.8-1.1zM142.3 22.6c-.9 0-1.8.2-2.6.6-.6.3-1.1.7-1.5 1.2-.7-1.2-2-1.8-3.9-1.8-.8 0-1.6.2-2.3.5-.5.3-.9.6-1.3 1l-.2-1.3h-2.1v12.5h2.5v-6.5c0-1.5.3-2.5.8-3.1.5-.6 1.3-.9 2.4-.9.8 0 1.4.2 1.8.6.4.4.6 1.1.6 1.9v8h2.5v-6.9c0-1.3.3-2.2.8-2.8.5-.6 1.3-.9 2.4-.9.8 0 1.4.2 1.8.6.4.4.6 1.1.6 1.9v8h2.5v-8c0-1.6-.4-2.8-1.1-3.5s-2.2-1.1-3.7-1.1zM155 22.6c-1.8 0-3.2.6-4.2 1.8-1 1.2-1.6 2.8-1.6 4.8s.6 3.5 1.7 4.7 2.7 1.7 4.6 1.7c.9 0 1.6-.1 2.2-.2.6-.1 1.3-.3 2-.6l.2-.1v-2.2l-.4.2c-1.3.5-2.6.8-3.9.8-1.2 0-2.1-.3-2.8-1-.6-.6-.9-1.5-1-2.7h8.6v-1.4c0-1.7-.5-3-1.4-4.1-1.1-1.1-2.4-1.7-4-1.7zm-.1 2.1c.9 0 1.6.3 2.1.8.4.5.7 1.2.7 2.1h-5.9c.1-.9.4-1.6.9-2.1.6-.5 1.3-.8 2.2-.8zM168.7 22.6c-.8 0-1.6.2-2.3.7-.5.3-1 .8-1.4 1.3l-.2-1.8h-2.1v12.5h2.5v-6.7c0-1.1.3-2 1-2.7.7-.7 1.4-1.1 2.4-1.1.4 0 .8.1 1.3.2l.3.1.4-2.3-.3-.1c-.5 0-1-.1-1.6-.1zM177.4 24.8c.4 0 .8 0 1.2.1.5.1.9.2 1.3.4l.3.1.8-2.1-.2-.1c-.4-.2-.9-.3-1.5-.5-.6-.1-1.2-.2-1.9-.2-1.9 0-3.5.6-4.5 1.7-1.1 1.1-1.6 2.8-1.6 4.8s.5 3.6 1.6 4.7c1 1.1 2.5 1.7 4.4 1.7 1.3 0 2.4-.2 3.3-.6l.2-.1v-2.2l-.4.2c-1.1.4-2.1.6-3.1.6-1.1 0-2-.3-2.5-1.1-.6-.7-.9-1.8-.9-3.2 0-2.8 1.1-4.2 3.5-4.2zM193.4 28.3c0-1.7-.5-3-1.4-4.1-1-1-2.3-1.6-3.9-1.6-1.8 0-3.2.6-4.2 1.8-1 1.2-1.6 2.8-1.6 4.8s.6 3.5 1.7 4.7c1.1 1.1 2.7 1.7 4.6 1.7.9 0 1.6-.1 2.2-.2.6-.1 1.3-.3 2-.6l.2-.1v-2.2l-.4.2c-1.3.5-2.6.8-3.9.8-1.2 0-2.1-.3-2.8-1-.6-.6-.9-1.5-1-2.7h8.6v-1.5zm-5.4-3.6c.9 0 1.6.3 2.1.8.4.5.7 1.2.7 2.1h-5.9c.1-.9.4-1.6.9-2.1s1.2-.8 2.2-.8z"/></g><g opacity=".6" fill="#00A9C7"><path d="M16 21.1c5 0 9.5 1.4 13 3.6 1.5-1.9 2.4-4.2 2.4-6.6 0-7.1-7.7-12.9-17.1-12.9C4.8 5.2 3.5 11 3.5 18.1c0 3.3.3 6.2 1.5 8.5 1.6-3.3 4.8-5.5 11-5.5z"/><path d="M29 24.7c-3 3.8-8.4 6.3-14.7 6.3-5.1 0-7.8-1.7-9.3-4.4-1.2 2.6-1.5 5.9-1.5 9.4C3.5 44.3 5 51 16 51s19.9-6.7 19.9-15c0-4.5-2.7-8.5-6.9-11.3z"/></g><path fill="#00A9C7" d="M5 26.7c1.4 2.7 4.1 4.4 9.3 4.4 6.3 0 11.7-2.5 14.7-6.3-3.5-2.3-8-3.6-13-3.6-6.2-.1-9.4 2.1-11 5.5z"/></svg>