<svg width="115" height="26" viewBox="0 0 115 26" xmlns="http://www.w3.org/2000/svg" xmlns:xlink="http://www.w3.org/1999/xlink"><title>Logo BigCommerce</title><defs><path id="a" d="M0 .124h115V26H0"/><path id="c" d="M0 .124h115V26H0"/><path id="e" d="M0 .124h115V26H0z"/></defs><g fill="none" fill-rule="evenodd"><path d="M14.11 16.357h2.344c.683 0 1.11-.388 1.11-1.005 0-.588-.427-1.005-1.11-1.005H14.11c-.105 0-.19.085-.19.19v1.63c0 .105.085.19.19.19M14.11 20.333h2.43c.753 0 1.21-.402 1.21-1.09 0-.603-.428-1.092-1.21-1.092h-2.43c-.105 0-.19.086-.19.19v1.804c0 .104.085.19.19.19M32.844 15.306c-.458-.61-1.223-1.102-2.146-1.102-1.736 0-2.99 1.335-2.99 3.143 0 1.81 1.254 3.144 2.99 3.144.802 0 1.552-.34 1.952-.683.036-.03.054-.076.054-.123v-.922c0-.084-.067-.152-.15-.152H30.4c-.11 0-.2-.09-.2-.202v-1.375c0-.112.09-.203.2-.203h3.975v-2.166l-1.273.702c-.085.048-.2.02-.258-.06M36.17 17.34c0-2.958 2.1-4.953 4.805-4.953 1.76 0 2.893.907 3.576 1.992.052.08.023.183-.06.228l-1.08.593c-.07.04-.16.014-.203-.055-.46-.738-1.31-1.265-2.232-1.265-1.812 0-3.156 1.435-3.156 3.46 0 1.994 1.343 3.46 3.155 3.46.923 0 1.772-.542 2.233-1.27.043-.067.13-.094.2-.057l1.09.57c.086.044.115.15.06.23-.705 1.087-1.824 2.018-3.583 2.018-2.704 0-4.804-2.008-4.804-4.95M53.207 17.34c0-1.982-1.195-3.46-3.036-3.46-1.854 0-3.036 1.478-3.036 3.46 0 1.966 1.182 3.46 3.037 3.46 1.842 0 3.037-1.494 3.037-3.46m-7.722 0c0-2.383 1.348-4.236 3.39-4.786 3.448-.93 6.613 2.33 5.863 5.97-.46 2.232-2.227 3.767-4.567 3.767-2.747 0-4.685-2.094-4.685-4.95M64.7 22.006v-7.28L61.82 22.07c-.012.03-.04.05-.074.05l-.603.002c-.032 0-.06-.02-.073-.052l-2.897-7.34v7.278c0 .063-.05.113-.112.113h-1.442c-.06 0-.112-.052-.112-.114v-9.348c0-.063.05-.112.112-.112H58.7c.09 0 .175.056.21.143l2.532 6.57 2.52-6.57c.033-.088.116-.144.21-.144h2.083c.06 0 .112.05.112.112v9.348c0 .063-.05.113-.112.113h-1.442c-.062 0-.112-.052-.112-.114M81.096 21.946v-9.228c0-.095.078-.173.172-.173h6.16c.094 0 .172.078.172.173v1.132c0 .096-.078.173-.172.173h-4.495c-.095 0-.17.078-.17.174v2.122c0 .095.075.172.17.172h4.396c.093 0 .17.078.17.173v1.132c0 .096-.077.174-.17.174h-4.397c-.095 0-.17.078-.17.174v2.324c0 .095.075.173.17.173h4.495c.094 0 .172.078.172.174v1.132c0 .096-.078.173-.172.173h-6.16c-.094 0-.172-.078-.172-.174M95.544 15.53c0-.918-.683-1.506-1.622-1.506h-2.12c-.095 0-.17.076-.17.17v2.7c0 .096.075.173.17.173h2.12c.94 0 1.622-.603 1.622-1.536m-.206 6.505l-1.993-3.406c-.03-.053-.086-.085-.147-.085H91.8c-.093 0-.17.077-.17.172v3.23c0 .096-.075.172-.17.172h-1.324c-.094 0-.17-.077-.17-.172v-9.23c0-.096.076-.173.17-.173h4c1.878 0 3.116 1.22 3.116 3 0 1.576-.96 2.494-2.023 2.764-.116.028-.175.154-.112.256.396.64 1.603 2.584 2.043 3.292.07.114-.01.26-.144.26h-1.53c-.06 0-.117-.03-.148-.083" fill="#FFF"/><g><mask id="b" fill="#fff"><use xlink:href="#a"/></mask><path d="M108.496 21.95v-9.236c0-.094.075-.17.168-.17h6.168c.092 0 .167.076.167.17v1.14c0 .094-.076.17-.168.17h-4.503c-.094 0-.17.075-.17.168v2.13c0 .094.076.17.17.17h4.403c.092 0 .167.076.167.17v1.14c0 .093-.075.168-.167.168h-4.404c-.094 0-.17.076-.17.17v2.332c0 .093.076.17.17.17h4.502c.092 0 .167.074.167.167v1.14c0 .093-.076.17-.168.17h-6.168c-.093 0-.168-.077-.168-.17" fill="#FFF" mask="url(#b)"/></g><path d="M98.47 17.3c0-2.958 2.1-4.953 4.805-4.953 1.76 0 2.893.907 3.576 1.992.05.08.023.183-.06.228l-1.08.593c-.07.04-.16.014-.203-.055-.46-.738-1.31-1.265-2.232-1.265-1.812 0-3.157 1.435-3.157 3.46 0 1.994 1.345 3.46 3.157 3.46.923 0 1.772-.542 2.233-1.27.042-.067.13-.094.2-.057l1.09.57c.086.044.114.15.06.23-.705 1.087-1.824 2.018-3.583 2.018-2.705 0-4.804-2.008-4.804-4.95M76.994 22.006v-7.28L74.11 22.07c-.01.03-.04.05-.073.05l-.603.002c-.032 0-.062-.02-.074-.052l-2.897-7.34v7.278c0 .063-.05.113-.112.113h-1.44c-.062 0-.112-.052-.112-.114v-9.348c0-.063.05-.112.112-.112h2.083c.092 0 .175.056.21.143l2.533 6.57 2.52-6.57c.033-.088.116-.144.21-.144h2.082c.06 0 .112.05.112.112v9.348c0 .063-.05.113-.112.113h-1.442c-.062 0-.112-.052-.112-.114" fill="#FFF"/><g><mask id="d" fill="#fff"><use xlink:href="#c"/></mask><path d="M.883 26h15.87l-.01-.006H.845c.013 0 .024.006.037.006" fill="#FFF" mask="url(#d)"/></g><g><mask id="f" fill="#fff"><use xlink:href="#e"/></mask><path d="M23.766 21.953c0 .096-.078.174-.173.174h-1.676c-.095 0-.172-.078-.172-.174v-9.227c0-.096.077-.173.172-.173h1.676c.095 0 .173.077.173.173v9.227zM33.194.183c-.105.043-.208.1-.3.19l-16.46 12.18h.46c1.81 0 2.734 1.162 2.734 2.44 0 .992-.514 1.725-1.203 2.05-.12.057-.116.22.006.27.805.333 1.382 1.2 1.382 2.215 0 1.45-.94 2.6-2.76 2.6h-4.964c-.104 0-.188-.086-.188-.19v-6.04L.244 24.495c-.523.555-.15 1.467.602 1.498h32.662c.48 0 .867-.392.867-.875v-4.26c-.934.884-2.165 1.44-3.678 1.44-2.788 0-5.065-1.94-5.065-4.953 0-3.03 2.277-4.952 5.065-4.952 1.764 0 2.94.81 3.678 1.796V.99c0-.65-.648-1.02-1.18-.806z" fill="#FFF" mask="url(#f)"/></g></g></svg>
